# Created by Kenney (www.kenney.nl)

mtllib Stool.mtl

v 5 1 3.4
v 5 1 -3.4
v 4 1 3.4
v 4 1 -3.4
v 4 2 -3.4
v 4 2 3.4
v 5 2 -3.4
v 5 2 3.4
v 4 0 5.1
v 4 0 -5.1
v 3 0 5.1
v 3 0 -5.1
v 3 2 -5.1
v 3 2 5.1
v 4 2 -5.1
v 4 2 5.1
v 3 1 5.1
v 3 1 -5.1
v 2 1 5.1
v 2 1 -5.1
v 2 2 -5.1
v 2 2 5.1
v 2 0 5.95
v 2 0 -5.95
v -2 0 5.95
v -2 0 -5.95
v -2 2 -5.95
v -2 2 5.95
v 2 2 -5.95
v 2 2 5.95
v -2 1 5.1
v -2 1 -5.1
v -4 1 5.1
v -4 1 -5.1
v -4 2 -5.1
v -4 2 5.1
v -2 2 -5.1
v -2 2 5.1
v -4 1 3.4
v -4 1 -3.4
v -5 1 3.4
v -5 1 -3.4
v -5 2 -3.4
v -5 2 3.4
v -4 2 -3.4
v -4 2 3.4
v 6 0 3.4
v 6 0 -3.4
v 5 0 3.4
v 5 0 -3.4
v 6 1 -3.4
v 6 1 3.4
v 5 0 5.1
v 5 0 -5.1
v 4 1 -5.1
v 4 1 5.1
v 5 1 -5.1
v 5 1 5.1
v 3 0 5.95
v 3 0 -5.95
v 2 1 -5.95
v 2 1 5.95
v 3 1 -5.95
v 3 1 5.95
v -3 0 5.95
v -3 0 -5.95
v -3 1 -5.95
v -3 1 5.95
v -2 1 -5.95
v -2 1 5.95
v -3 0 5.1
v -3 0 -5.1
v -5 0 5.1
v -5 0 -5.1
v -5 1 -5.1
v -5 1 5.1
v -3 1 -5.1
v -3 1 5.1
v -5 0 3.4
v -5 0 -3.4
v -6 0 3.4
v -6 0 -3.4
v -6 1 -3.4
v -6 1 3.4
v 3 -2 1.7
v 3 -2 -1.7
v 2 -2 1.7
v 2 -2 -1.7
v 2 0 -1.7
v 2 0 1.7
v 3 0 -1.7
v 3 0 1.7
v 1 -2 0.85
v 1 -2 -0.85
v -1 -2 0.85
v -1 -2 -0.85
v -1 0 -0.85
v -1 0 0.85
v 1 0 -0.85
v 1 0 0.85
v -2 -2 1.7
v -2 -2 -1.7
v -3 -2 1.7
v -3 -2 -1.7
v -3 0 -1.7
v -3 0 1.7
v -2 0 -1.7
v -2 0 1.7
v 2 -3 1.7
v 2 -3 -1.7
v 1 -3 1.7
v 1 -3 -1.7
v 1 -1 -1.7
v 1 -1 1.7
v 2 -1 -1.7
v 2 -1 1.7
v -1 -3 1.7
v -1 -3 -1.7
v -2 -3 1.7
v -2 -3 -1.7
v -2 -1 -1.7
v -2 -1 1.7
v -1 -1 -1.7
v -1 -1 1.7
v 1 -9 1.7
v 1 -9 -1.7
v -1 -9 1.7
v -1 -9 -1.7
v -1 -2 -1.7
v -1 -2 1.7
v 1 -2 -1.7
v 1 -2 1.7
v 2 -11 1.7
v 2 -11 -1.7
v 1 -11 1.7
v 1 -11 -1.7
v 1 -8 -1.7
v 1 -8 1.7
v 2 -8 -1.7
v 2 -8 1.7
v -1 -11 1.7
v -1 -11 -1.7
v -2 -11 1.7
v -2 -11 -1.7
v -2 -8 -1.7
v -2 -8 1.7
v -1 -8 -1.7
v -1 -8 1.7
v 1 -15 0.85
v 1 -15 -0.85
v -1 -15 0.85
v -1 -15 -0.85
v -1 -9 -0.85
v -1 -9 0.85
v 1 -9 -0.85
v 1 -9 0.85
v 3 -13 1.7
v 3 -13 -1.7
v 2 -13 1.7
v 2 -13 -1.7
v 2 -10 -1.7
v 2 -10 1.7
v 3 -10 -1.7
v 3 -10 1.7
v -2 -13 1.7
v -2 -13 -1.7
v -3 -13 1.7
v -3 -13 -1.7
v -3 -10 -1.7
v -3 -10 1.7
v -2 -10 -1.7
v -2 -10 1.7
v 4 -14 1.7
v 4 -14 -1.7
v 3 -14 1.7
v 3 -14 -1.7
v 3 -12 -1.7
v 3 -12 1.7
v 4 -12 -1.7
v 4 -12 1.7
v -3 -14 1.7
v -3 -14 -1.7
v -4 -14 1.7
v -4 -14 -1.7
v -4 -12 -1.7
v -4 -12 1.7
v -3 -12 -1.7
v -3 -12 1.7
v 5 -15 1.7
v 5 -15 -1.7
v 2 -15 1.7
v 2 -15 -1.7
v 2 -14 -1.7
v 2 -14 1.7
v 5 -14 -1.7
v 5 -14 1.7
v -2 -15 1.7
v -2 -15 -1.7
v -5 -15 1.7
v -5 -15 -1.7
v -5 -14 -1.7
v -5 -14 1.7
v -2 -14 -1.7
v -2 -14 1.7

vn 0 -1 0
vn -1 0 0
vn 0 0 -1
vn 0 0 1
vn 1 0 0
vn 0 1 0

vt 0.3125 0.0625
vt 0.4375 0.1875
vt 0.9375 0.4375
vt 0.3125 0.1875

usemtl Stool

f 3/1/1 2/1/1 1/1/1
f 2/1/1 3/1/1 4/1/1
f 3/1/2 5/1/2 4/1/2
f 5/1/2 3/1/2 6/1/2
f 5/1/3 2/1/3 4/1/3
f 2/1/3 5/1/3 7/1/3
f 8/1/4 3/1/4 1/1/4
f 3/1/4 8/1/4 6/1/4
f 8/1/5 2/1/5 7/1/5
f 2/1/5 8/1/5 1/1/5
f 5/1/6 8/1/6 7/1/6
f 8/1/6 5/1/6 6/1/6
f 11/1/1 10/1/1 9/1/1
f 10/1/1 11/1/1 12/1/1
f 11/1/2 13/1/2 12/1/2
f 13/1/2 11/1/2 14/1/2
f 13/1/3 10/1/3 12/1/3
f 10/1/3 13/1/3 15/1/3
f 16/1/4 11/1/4 9/1/4
f 11/1/4 16/1/4 14/1/4
f 16/1/5 10/1/5 15/1/5
f 10/1/5 16/1/5 9/1/5
f 13/1/6 16/1/6 15/1/6
f 16/1/6 13/1/6 14/1/6
f 19/1/1 18/1/1 17/1/1
f 18/1/1 19/1/1 20/1/1
f 19/1/2 21/1/2 20/1/2
f 21/1/2 19/1/2 22/1/2
f 21/1/3 18/1/3 20/1/3
f 18/1/3 21/1/3 13/1/3
f 14/1/4 19/1/4 17/1/4
f 19/1/4 14/1/4 22/1/4
f 14/1/5 18/1/5 13/1/5
f 18/1/5 14/1/5 17/1/5
f 21/1/6 14/1/6 13/1/6
f 14/1/6 21/1/6 22/1/6
f 25/1/1 24/1/1 23/1/1
f 24/1/1 25/1/1 26/1/1
f 25/1/2 27/1/2 26/1/2
f 27/1/2 25/1/2 28/1/2
f 27/1/3 24/1/3 26/1/3
f 24/1/3 27/1/3 29/1/3
f 30/1/4 25/1/4 23/1/4
f 25/1/4 30/1/4 28/1/4
f 30/1/5 24/1/5 29/1/5
f 24/1/5 30/1/5 23/1/5
f 27/1/6 30/1/6 29/1/6
f 30/1/6 27/1/6 28/1/6
f 33/1/1 32/1/1 31/1/1
f 32/1/1 33/1/1 34/1/1
f 33/1/2 35/1/2 34/1/2
f 35/1/2 33/1/2 36/1/2
f 35/1/3 32/1/3 34/1/3
f 32/1/3 35/1/3 37/1/3
f 38/1/4 33/1/4 31/1/4
f 33/1/4 38/1/4 36/1/4
f 38/1/5 32/1/5 37/1/5
f 32/1/5 38/1/5 31/1/5
f 35/1/6 38/1/6 37/1/6
f 38/1/6 35/1/6 36/1/6
f 41/1/1 40/1/1 39/1/1
f 40/1/1 41/1/1 42/1/1
f 41/1/2 43/1/2 42/1/2
f 43/1/2 41/1/2 44/1/2
f 43/1/3 40/1/3 42/1/3
f 40/1/3 43/1/3 45/1/3
f 46/1/4 41/1/4 39/1/4
f 41/1/4 46/1/4 44/1/4
f 46/1/5 40/1/5 45/1/5
f 40/1/5 46/1/5 39/1/5
f 43/1/6 46/1/6 45/1/6
f 46/1/6 43/1/6 44/1/6
f 3/1/1 2/1/1 1/1/1
f 2/1/1 3/1/1 4/1/1
f 3/1/2 5/1/2 4/1/2
f 5/1/2 3/1/2 6/1/2
f 5/1/3 2/1/3 4/1/3
f 2/1/3 5/1/3 7/1/3
f 8/1/4 3/1/4 1/1/4
f 3/1/4 8/1/4 6/1/4
f 8/1/5 2/1/5 7/1/5
f 2/1/5 8/1/5 1/1/5
f 5/1/6 8/1/6 7/1/6
f 8/1/6 5/1/6 6/1/6
f 19/1/1 18/1/1 17/1/1
f 18/1/1 19/1/1 20/1/1
f 19/1/2 21/1/2 20/1/2
f 21/1/2 19/1/2 22/1/2
f 21/1/3 18/1/3 20/1/3
f 18/1/3 21/1/3 13/1/3
f 14/1/4 19/1/4 17/1/4
f 19/1/4 14/1/4 22/1/4
f 14/1/5 18/1/5 13/1/5
f 18/1/5 14/1/5 17/1/5
f 21/1/6 14/1/6 13/1/6
f 14/1/6 21/1/6 22/1/6
f 49/1/1 48/1/1 47/1/1
f 48/1/1 49/1/1 50/1/1
f 49/1/2 2/1/2 50/1/2
f 2/1/2 49/1/2 1/1/2
f 2/1/3 48/1/3 50/1/3
f 48/1/3 2/1/3 51/1/3
f 52/1/4 49/1/4 47/1/4
f 49/1/4 52/1/4 1/1/4
f 52/1/5 48/1/5 51/1/5
f 48/1/5 52/1/5 47/1/5
f 2/1/6 52/1/6 51/1/6
f 52/1/6 2/1/6 1/1/6
f 9/1/1 54/1/1 53/1/1
f 54/1/1 9/1/1 10/1/1
f 9/1/2 55/1/2 10/1/2
f 55/1/2 9/1/2 56/1/2
f 55/1/3 54/1/3 10/1/3
f 54/1/3 55/1/3 57/1/3
f 58/1/4 9/1/4 53/1/4
f 9/1/4 58/1/4 56/1/4
f 58/1/5 54/1/5 57/1/5
f 54/1/5 58/1/5 53/1/5
f 55/1/6 58/1/6 57/1/6
f 58/1/6 55/1/6 56/1/6
f 23/1/1 60/1/1 59/1/1
f 60/1/1 23/1/1 24/1/1
f 23/1/2 61/1/2 24/1/2
f 61/1/2 23/1/2 62/1/2
f 61/1/3 60/1/3 24/1/3
f 60/1/3 61/1/3 63/1/3
f 64/1/4 23/1/4 59/1/4
f 23/1/4 64/1/4 62/1/4
f 64/1/5 60/1/5 63/1/5
f 60/1/5 64/1/5 59/1/5
f 61/1/6 64/1/6 63/1/6
f 64/1/6 61/1/6 62/1/6
f 65/1/1 26/1/1 25/1/1
f 26/1/1 65/1/1 66/1/1
f 65/1/2 67/1/2 66/1/2
f 67/1/2 65/1/2 68/1/2
f 67/1/3 26/1/3 66/1/3
f 26/1/3 67/1/3 69/1/3
f 70/1/4 65/1/4 25/1/4
f 65/1/4 70/1/4 68/1/4
f 70/1/5 26/1/5 69/1/5
f 26/1/5 70/1/5 25/1/5
f 67/1/6 70/1/6 69/1/6
f 70/1/6 67/1/6 68/1/6
f 73/1/1 72/1/1 71/1/1
f 72/1/1 73/1/1 74/1/1
f 73/1/2 75/1/2 74/1/2
f 75/1/2 73/1/2 76/1/2
f 75/1/3 72/1/3 74/1/3
f 72/1/3 75/1/3 77/1/3
f 78/1/4 73/1/4 71/1/4
f 73/1/4 78/1/4 76/1/4
f 78/1/5 72/1/5 77/1/5
f 72/1/5 78/1/5 71/1/5
f 75/1/6 78/1/6 77/1/6
f 78/1/6 75/1/6 76/1/6
f 81/1/1 80/1/1 79/1/1
f 80/1/1 81/1/1 82/1/1
f 81/1/2 83/1/2 82/1/2
f 83/1/2 81/1/2 84/1/2
f 83/1/3 80/1/3 82/1/3
f 80/1/3 83/1/3 42/1/3
f 41/1/4 81/1/4 79/1/4
f 81/1/4 41/1/4 84/1/4
f 41/1/5 80/1/5 42/1/5
f 80/1/5 41/1/5 79/1/5
f 83/1/6 41/1/6 42/1/6
f 41/1/6 83/1/6 84/1/6
f 87/2/1 86/2/1 85/2/1
f 86/2/1 87/2/1 88/2/1
f 87/2/2 89/2/2 88/2/2
f 89/2/2 87/2/2 90/2/2
f 89/2/3 86/2/3 88/2/3
f 86/2/3 89/2/3 91/2/3
f 92/2/4 87/2/4 85/2/4
f 87/2/4 92/2/4 90/2/4
f 92/2/5 86/2/5 91/2/5
f 86/2/5 92/2/5 85/2/5
f 89/2/6 92/2/6 91/2/6
f 92/2/6 89/2/6 90/2/6
f 95/3/1 94/3/1 93/3/1
f 94/3/1 95/3/1 96/3/1
f 95/3/2 97/3/2 96/3/2
f 97/3/2 95/3/2 98/3/2
f 97/3/3 94/3/3 96/3/3
f 94/3/3 97/3/3 99/3/3
f 100/3/4 95/3/4 93/3/4
f 95/3/4 100/3/4 98/3/4
f 100/3/5 94/3/5 99/3/5
f 94/3/5 100/3/5 93/3/5
f 97/3/6 100/3/6 99/3/6
f 100/3/6 97/3/6 98/3/6
f 103/2/1 102/2/1 101/2/1
f 102/2/1 103/2/1 104/2/1
f 103/2/2 105/2/2 104/2/2
f 105/2/2 103/2/2 106/2/2
f 105/2/3 102/2/3 104/2/3
f 102/2/3 105/2/3 107/2/3
f 108/2/4 103/2/4 101/2/4
f 103/2/4 108/2/4 106/2/4
f 108/2/5 102/2/5 107/2/5
f 102/2/5 108/2/5 101/2/5
f 105/2/6 108/2/6 107/2/6
f 108/2/6 105/2/6 106/2/6
f 111/2/1 110/2/1 109/2/1
f 110/2/1 111/2/1 112/2/1
f 111/2/2 113/2/2 112/2/2
f 113/2/2 111/2/2 114/2/2
f 113/2/3 110/2/3 112/2/3
f 110/2/3 113/2/3 115/2/3
f 116/2/4 111/2/4 109/2/4
f 111/2/4 116/2/4 114/2/4
f 116/2/5 110/2/5 115/2/5
f 110/2/5 116/2/5 109/2/5
f 113/2/6 116/2/6 115/2/6
f 116/2/6 113/2/6 114/2/6
f 119/2/1 118/2/1 117/2/1
f 118/2/1 119/2/1 120/2/1
f 119/2/2 121/2/2 120/2/2
f 121/2/2 119/2/2 122/2/2
f 121/2/3 118/2/3 120/2/3
f 118/2/3 121/2/3 123/2/3
f 124/2/4 119/2/4 117/2/4
f 119/2/4 124/2/4 122/2/4
f 124/2/5 118/2/5 123/2/5
f 118/2/5 124/2/5 117/2/5
f 121/2/6 124/2/6 123/2/6
f 124/2/6 121/2/6 122/2/6
f 127/2/1 126/2/1 125/2/1
f 126/2/1 127/2/1 128/2/1
f 127/2/2 129/2/2 128/2/2
f 129/2/2 127/2/2 130/2/2
f 129/2/3 126/2/3 128/2/3
f 126/2/3 129/2/3 131/2/3
f 132/2/4 127/2/4 125/2/4
f 127/2/4 132/2/4 130/2/4
f 132/2/5 126/2/5 131/2/5
f 126/2/5 132/2/5 125/2/5
f 129/2/6 132/2/6 131/2/6
f 132/2/6 129/2/6 130/2/6
f 135/2/1 134/2/1 133/2/1
f 134/2/1 135/2/1 136/2/1
f 135/2/2 137/2/2 136/2/2
f 137/2/2 135/2/2 138/2/2
f 137/2/3 134/2/3 136/2/3
f 134/2/3 137/2/3 139/2/3
f 140/2/4 135/2/4 133/2/4
f 135/2/4 140/2/4 138/2/4
f 140/2/5 134/2/5 139/2/5
f 134/2/5 140/2/5 133/2/5
f 137/2/6 140/2/6 139/2/6
f 140/2/6 137/2/6 138/2/6
f 143/2/1 142/2/1 141/2/1
f 142/2/1 143/2/1 144/2/1
f 143/2/2 145/2/2 144/2/2
f 145/2/2 143/2/2 146/2/2
f 145/2/3 142/2/3 144/2/3
f 142/2/3 145/2/3 147/2/3
f 148/2/4 143/2/4 141/2/4
f 143/2/4 148/2/4 146/2/4
f 148/2/5 142/2/5 147/2/5
f 142/2/5 148/2/5 141/2/5
f 145/2/6 148/2/6 147/2/6
f 148/2/6 145/2/6 146/2/6
f 151/3/1 150/3/1 149/3/1
f 150/3/1 151/3/1 152/3/1
f 151/3/2 153/3/2 152/3/2
f 153/3/2 151/3/2 154/3/2
f 153/3/3 150/3/3 152/3/3
f 150/3/3 153/3/3 155/3/3
f 156/3/4 151/3/4 149/3/4
f 151/3/4 156/3/4 154/3/4
f 156/3/5 150/3/5 155/3/5
f 150/3/5 156/3/5 149/3/5
f 153/3/6 156/3/6 155/3/6
f 156/3/6 153/3/6 154/3/6
f 159/2/1 158/2/1 157/2/1
f 158/2/1 159/2/1 160/2/1
f 159/2/2 161/2/2 160/2/2
f 161/2/2 159/2/2 162/2/2
f 161/2/3 158/2/3 160/2/3
f 158/2/3 161/2/3 163/2/3
f 164/2/4 159/2/4 157/2/4
f 159/2/4 164/2/4 162/2/4
f 164/2/5 158/2/5 163/2/5
f 158/2/5 164/2/5 157/2/5
f 161/2/6 164/2/6 163/2/6
f 164/2/6 161/2/6 162/2/6
f 167/2/1 166/2/1 165/2/1
f 166/2/1 167/2/1 168/2/1
f 167/2/2 169/2/2 168/2/2
f 169/2/2 167/2/2 170/2/2
f 169/2/3 166/2/3 168/2/3
f 166/2/3 169/2/3 171/2/3
f 172/2/4 167/2/4 165/2/4
f 167/2/4 172/2/4 170/2/4
f 172/2/5 166/2/5 171/2/5
f 166/2/5 172/2/5 165/2/5
f 169/2/6 172/2/6 171/2/6
f 172/2/6 169/2/6 170/2/6
f 175/2/1 174/2/1 173/2/1
f 174/2/1 175/2/1 176/2/1
f 175/2/2 177/2/2 176/2/2
f 177/2/2 175/2/2 178/2/2
f 177/2/3 174/2/3 176/2/3
f 174/2/3 177/2/3 179/2/3
f 180/2/4 175/2/4 173/2/4
f 175/2/4 180/2/4 178/2/4
f 180/2/5 174/2/5 179/2/5
f 174/2/5 180/2/5 173/2/5
f 177/2/6 180/2/6 179/2/6
f 180/2/6 177/2/6 178/2/6
f 183/2/1 182/2/1 181/2/1
f 182/2/1 183/2/1 184/2/1
f 183/2/2 185/2/2 184/2/2
f 185/2/2 183/2/2 186/2/2
f 185/2/3 182/2/3 184/2/3
f 182/2/3 185/2/3 187/2/3
f 188/2/4 183/2/4 181/2/4
f 183/2/4 188/2/4 186/2/4
f 188/2/5 182/2/5 187/2/5
f 182/2/5 188/2/5 181/2/5
f 185/2/6 188/2/6 187/2/6
f 188/2/6 185/2/6 186/2/6
f 191/4/1 190/4/1 189/4/1
f 190/4/1 191/4/1 192/4/1
f 191/4/2 193/4/2 192/4/2
f 193/4/2 191/4/2 194/4/2
f 193/4/3 190/4/3 192/4/3
f 190/4/3 193/4/3 195/4/3
f 196/4/4 191/4/4 189/4/4
f 191/4/4 196/4/4 194/4/4
f 196/4/5 190/4/5 195/4/5
f 190/4/5 196/4/5 189/4/5
f 193/4/6 196/4/6 195/4/6
f 196/4/6 193/4/6 194/4/6
f 199/4/1 198/4/1 197/4/1
f 198/4/1 199/4/1 200/4/1
f 199/4/2 201/4/2 200/4/2
f 201/4/2 199/4/2 202/4/2
f 201/4/3 198/4/3 200/4/3
f 198/4/3 201/4/3 203/4/3
f 204/4/4 199/4/4 197/4/4
f 199/4/4 204/4/4 202/4/4
f 204/4/5 198/4/5 203/4/5
f 198/4/5 204/4/5 197/4/5
f 201/4/6 204/4/6 203/4/6
f 204/4/6 201/4/6 202/4/6

