# Created by Kenney (www.kenney.nl)

mtllib Frame.mtl

v 10 13 0.5
v 9 13 0.5
v 9.965926 13.25882 0.5
v 9 14 0.5
v 9.866025 13.5 0.5
v 9.707107 13.70711 0.5
v 9.5 13.86602 0.5
v 9.258819 13.96593 0.5
v 9.707107 13.70711 -0.5
v 9.5 13.86602 -0.5
v 9.866025 13.5 -0.5
v 9.965926 13.25882 -0.5
v 10 13 -0.5
v 9.258819 13.96593 -0.5
v 9 14 -0.5
v 9 13 -0.5
v 5.741181 14.03407 -0.5
v 5.741181 14.03407 0.5
v 5.5 14.13398 -0.5
v 5.5 14.13398 0.5
v 5.292893 14.29289 -0.5
v 5.292893 14.29289 0.5
v 5.133975 14.5 0.5
v 5.133975 14.5 -0.5
v 5.034074 14.74118 0.5
v 5.034074 14.74118 -0.5
v 6 14 0.5
v 6 14 -0.5
v 5 15 0.5
v 5 15 -0.5
v 5 14 0.5
v 5 14 -0.5
v 4 15 0.5
v 4.965926 15.25882 0.5
v 4 16 0.5
v 4.866025 15.5 0.5
v 4.707107 15.70711 0.5
v 4.5 15.86602 0.5
v 4.258819 15.96593 0.5
v 4.707107 15.70711 -0.5
v 4.5 15.86602 -0.5
v 4.866025 15.5 -0.5
v 4.965926 15.25882 -0.5
v 4.258819 15.96593 -0.5
v 4 16 -0.5
v 4 15 -0.5
v -4.258819 15.96593 -0.5
v -4.258819 15.96593 0.5
v -4.5 15.86602 -0.5
v -4.5 15.86602 0.5
v -4 16 0.5
v -4 16 -0.5
v -4.707107 15.70711 -0.5
v -4.707107 15.70711 0.5
v -4.866025 15.5 0.5
v -4.866025 15.5 -0.5
v -4.965926 15.25882 0.5
v -4.965926 15.25882 -0.5
v -5 15 0.5
v -5 15 -0.5
v -4 15 -0.5
v -4 15 0.5
v -5 14 0.5
v -5 14 -0.5
v -6 14 0.5
v -6 14 -0.5
v -5.741181 14.03407 -0.5
v -5.741181 14.03407 0.5
v -5.5 14.13398 0.5
v -5.5 14.13398 -0.5
v -5.292893 14.29289 0.5
v -5.292893 14.29289 -0.5
v -5.133975 14.5 -0.5
v -5.133975 14.5 0.5
v -5.034074 14.74118 -0.5
v -5.034074 14.74118 0.5
v -9.258819 13.96593 -0.5
v -9.258819 13.96593 0.5
v -9.5 13.86602 -0.5
v -9.5 13.86602 0.5
v -9 14 0.5
v -9 14 -0.5
v -9.707107 13.70711 -0.5
v -9.707107 13.70711 0.5
v -9.866025 13.5 0.5
v -9.866025 13.5 -0.5
v -9.965926 13.25882 0.5
v -9.965926 13.25882 -0.5
v -10 13 0.5
v -10 13 -0.5
v -9 13 -0.5
v -9 13 0.5
v 5 13 0.5
v 5 13 -0.5
v 4 13 0.5
v 4 13 -0.5
v 4 12 0.5
v 4 12 -0.5
v 3 12 0.5
v 3 12 -0.5
v 3 15 -0.5
v 3 15 0.5
v 3 14 0.5
v 3 14 -0.5
v -3 14 0.5
v -3 14 -0.5
v -3 15 -0.5
v -3 15 0.5
v -3 12 0.5
v -3 12 -0.5
v -4 12 0.5
v -4 12 -0.5
v -4 13 0.5
v -4 13 -0.5
v -5 13 0.5
v -5 13 -0.5
v 10 -11 0.5
v 10 -11 -0.5
v 9 -11 0.5
v 9 -11 -0.5
v 9 -10 0.5
v 9 -10 -0.5
v 8 -10 0.5
v 8 -10 -0.5
v 8 13 -0.5
v 8 13 0.5
v 8 12 0.5
v 8 12 -0.5
v -9 12 0.5
v -9 12 -0.5
v -9 -11 0.5
v -9 -11 -0.5
v -10 -11 0.5
v -10 -11 -0.5
v -8 -10 0.5
v -8 -10 -0.5
v -9 -10 0.5
v -9 -10 -0.5
v -8 12 -0.5
v -8 12 0.5
v -8 -9 -0.5
v -8 -9 0.5
v 8 -9 -0.5
v 8 -9 0.5

vn 0 0 1
vn 0.7071068 0.7071068 0
vn 0.5 0.8660254 0
vn 0.8660254 0.5 0
vn 0.9659258 0.258819 0
vn 0.9914449 0.1305262 0
vn 0.2588191 0.9659258 0
vn 0.1305262 0.9914449 0
vn 0 0 -1
vn 0 -1 0
vn -1 0 0
vn 0.258819 0.9659258 0
vn 0.1305262 0.9914449 0
vn 0.9914449 0.1305262 0
vn -0.258819 0.9659258 0
vn -0.5 0.8660254 0
vn -0.1305262 0.9914449 0
vn -0.7071068 0.7071068 0
vn -0.8660254 0.5 0
vn -0.9659258 0.258819 0
vn -0.9914449 0.1305262 0
vn 1 0 0
vn 0 1 0

vt 0.703125 0.7265625
vt 0.6953125 0.7265625
vt 0.7028588 0.7285845
vt 0.6953125 0.734375
vt 0.7020783 0.7304688
vt 0.7008368 0.7320868
vt 0.6992188 0.7333283
vt 0.6973345 0.7341088
vt 0.2991632 0.875
vt 0.2991632 0.8828125
vt 0.3007813 0.875
vt 0.3007813 0.8828125
vt 0.8828125 0.7320868
vt 0.8828125 0.7304688
vt 0.875 0.7320868
vt 0.875 0.7304688
vt 0.8828125 0.7285845
vt 0.875 0.7285845
vt 0.8828125 0.7265625
vt 0.875 0.7265625
vt 0.3026655 0.875
vt 0.3026655 0.8828125
vt 0.3046875 0.875
vt 0.3046875 0.8828125
vt 0.046875 0.7265625
vt 0.0471412 0.7285845
vt 0.0546875 0.7265625
vt 0.0546875 0.734375
vt 0.04792168 0.7304688
vt 0.04916323 0.7320868
vt 0.05078125 0.7333283
vt 0.05266548 0.7341088
vt 0.296875 0.375
vt 0.296875 0.3828125
vt 0.3046875 0.375
vt 0.3046875 0.3828125
vt 0.375 0.7265625
vt 0.375 0.734375
vt 0.3828125 0.7265625
vt 0.3828125 0.734375
vt 0.330147 0.875
vt 0.330147 0.8828125
vt 0.3320313 0.875
vt 0.3320313 0.8828125
vt 0.3336493 0.875
vt 0.3336493 0.8828125
vt 0.875 0.7366632
vt 0.875 0.7382813
vt 0.8828125 0.7366632
vt 0.8828125 0.7382813
vt 0.875 0.7401655
vt 0.8828125 0.7401655
vt 0.328125 0.8828125
vt 0.328125 0.875
vt 0.875 0.7421875
vt 0.8828125 0.7421875
vt 0.328125 0.375
vt 0.328125 0.3828125
vt 0.3359375 0.375
vt 0.3359375 0.3828125
vt 0.078125 0.734375
vt 0.08014703 0.7346412
vt 0.0859375 0.734375
vt 0.08203125 0.7354217
vt 0.08364927 0.7366632
vt 0.08489083 0.7382813
vt 0.08567129 0.7401655
vt 0.0859375 0.7421875
vt 0.375 0.7421875
vt 0.3828125 0.7421875
vt 0.6640625 0.7421875
vt 0.6643287 0.7401655
vt 0.6640625 0.734375
vt 0.6651092 0.7382813
vt 0.6663507 0.7366632
vt 0.6679688 0.7354217
vt 0.669853 0.7346412
vt 0.671875 0.734375
vt 0.65625 0.7421875
vt 0.6637963 0.7442095
vt 0.65625 0.75
vt 0.6630158 0.7460938
vt 0.6617743 0.7477118
vt 0.6601563 0.7489533
vt 0.658272 0.7497338
vt 0.3382257 0.875
vt 0.3382257 0.8828125
vt 0.3398438 0.875
vt 0.3398438 0.8828125
vt 0.8828125 0.7477118
vt 0.8828125 0.7460938
vt 0.875 0.7477118
vt 0.875 0.7460938
vt 0.8828125 0.7442095
vt 0.875 0.7442095
vt 0.341728 0.875
vt 0.341728 0.8828125
vt 0.34375 0.875
vt 0.34375 0.8828125
vt 0.08620371 0.7442095
vt 0.09375 0.7421875
vt 0.09375 0.75
vt 0.08698417 0.7460938
vt 0.08822573 0.7477118
vt 0.08984375 0.7489533
vt 0.09172797 0.7497338
vt 0.34375 0.375
vt 0.34375 0.3828125
vt 0.375 0.75
vt 0.3828125 0.75
vt 0.408272 0.875
vt 0.408272 0.8828125
vt 0.4101563 0.875
vt 0.4101563 0.8828125
vt 0.40625 0.8828125
vt 0.40625 0.875
vt 0.4117743 0.875
vt 0.4117743 0.8828125
vt 0.3828125 0.7477118
vt 0.3828125 0.7460938
vt 0.375 0.7477118
vt 0.375 0.7460938
vt 0.3828125 0.7442095
vt 0.375 0.7442095
vt 0.8828125 0.75
vt 0.875 0.75
vt 0.1640625 0.7421875
vt 0.15625 0.7421875
vt 0.1637963 0.7442095
vt 0.15625 0.75
vt 0.1630158 0.7460938
vt 0.1617743 0.7477118
vt 0.1601563 0.7489533
vt 0.158272 0.7497338
vt 0.59375 0.7421875
vt 0.5859375 0.7421875
vt 0.59375 0.75
vt 0.5862037 0.7442095
vt 0.5869842 0.7460938
vt 0.5882257 0.7477118
vt 0.5898438 0.7489533
vt 0.591728 0.7497338
vt 0.40625 0.375
vt 0.40625 0.3828125
vt 0.4140625 0.375
vt 0.4140625 0.3828125
vt 0.421875 0.375
vt 0.421875 0.3828125
vt 0.8828125 0.734375
vt 0.875 0.734375
vt 0.419853 0.875
vt 0.419853 0.8828125
vt 0.421875 0.875
vt 0.421875 0.8828125
vt 0.4179688 0.8828125
vt 0.4179688 0.875
vt 0.4163507 0.8828125
vt 0.4163507 0.875
vt 0.375 0.7366632
vt 0.375 0.7382813
vt 0.3828125 0.7366632
vt 0.3828125 0.7382813
vt 0.375 0.7401655
vt 0.3828125 0.7401655
vt 0.171875 0.734375
vt 0.1640625 0.734375
vt 0.169853 0.7346412
vt 0.1679688 0.7354217
vt 0.1663507 0.7366632
vt 0.1651092 0.7382813
vt 0.1643287 0.7401655
vt 0.578125 0.734375
vt 0.580147 0.7346412
vt 0.5859375 0.734375
vt 0.5820313 0.7354217
vt 0.5836493 0.7366632
vt 0.5848908 0.7382813
vt 0.5856713 0.7401655
vt 0.4473345 0.875
vt 0.4473345 0.8828125
vt 0.4492188 0.875
vt 0.4492188 0.8828125
vt 0.4453125 0.8828125
vt 0.4453125 0.875
vt 0.4508368 0.875
vt 0.4508368 0.8828125
vt 0.3828125 0.7320868
vt 0.3828125 0.7304688
vt 0.375 0.7320868
vt 0.375 0.7304688
vt 0.3828125 0.7285845
vt 0.375 0.7285845
vt 0.203125 0.7265625
vt 0.1953125 0.7265625
vt 0.2028588 0.7285845
vt 0.1953125 0.734375
vt 0.2020783 0.7304688
vt 0.2008368 0.7320868
vt 0.1992188 0.7333283
vt 0.1973345 0.7341088
vt 0.5546875 0.7265625
vt 0.546875 0.7265625
vt 0.5546875 0.734375
vt 0.5471412 0.7285845
vt 0.5479217 0.7304688
vt 0.5491632 0.7320868
vt 0.5507813 0.7333283
vt 0.5526655 0.7341088
vt 0.4453125 0.375
vt 0.4453125 0.3828125
vt 0.453125 0.375
vt 0.453125 0.3828125
vt 0.09375 0.7265625
vt 0.0859375 0.7265625
vt 0.6640625 0.7265625
vt 0.65625 0.7265625
vt 0.3359375 0.875
vt 0.3359375 0.8828125
vt 0.3515625 0.375
vt 0.3515625 0.3828125
vt 0.375 0.71875
vt 0.3828125 0.71875
vt 0.1015625 0.71875
vt 0.09375 0.71875
vt 0.1015625 0.7421875
vt 0.65625 0.71875
vt 0.6484375 0.71875
vt 0.6484375 0.7421875
vt 0.8828125 0.71875
vt 0.875 0.71875
vt 0.3515625 0.875
vt 0.3515625 0.8828125
vt 0.3984375 0.375
vt 0.3984375 0.3828125
vt 0.1484375 0.734375
vt 0.1015625 0.734375
vt 0.1484375 0.7421875
vt 0.6484375 0.734375
vt 0.6015625 0.734375
vt 0.6015625 0.7421875
vt 0.3984375 0.875
vt 0.3984375 0.8828125
vt 0.15625 0.71875
vt 0.1484375 0.71875
vt 0.6015625 0.71875
vt 0.59375 0.71875
vt 0.1640625 0.7265625
vt 0.15625 0.7265625
vt 0.59375 0.7265625
vt 0.5859375 0.7265625
vt 0.4140625 0.875
vt 0.4140625 0.8828125
vt 0.375 0.5390625
vt 0.3828125 0.5390625
vt 0.0546875 0.5390625
vt 0.046875 0.5390625
vt 0.703125 0.5390625
vt 0.6953125 0.5390625
vt 0.8828125 0.5390625
vt 0.875 0.5390625
vt 0.296875 0.875
vt 0.296875 0.8828125
vt 0.3125 0.375
vt 0.3125 0.3828125
vt 0.375 0.546875
vt 0.3828125 0.546875
vt 0.0625 0.546875
vt 0.0546875 0.546875
vt 0.0625 0.7265625
vt 0.6953125 0.546875
vt 0.6875 0.546875
vt 0.6875 0.7265625
vt 0.8828125 0.546875
vt 0.875 0.546875
vt 0.3125 0.875
vt 0.3125 0.8828125
vt 0.0625 0.71875
vt 0.6875 0.71875
vt 0.1953125 0.71875
vt 0.5546875 0.71875
vt 0.203125 0.5390625
vt 0.1953125 0.5390625
vt 0.5546875 0.5390625
vt 0.546875 0.5390625
vt 0.453125 0.875
vt 0.453125 0.8828125
vt 0.4375 0.375
vt 0.4375 0.3828125
vt 0.1953125 0.546875
vt 0.1875 0.546875
vt 0.1875 0.71875
vt 0.5625 0.546875
vt 0.5546875 0.546875
vt 0.5625 0.71875
vt 0.4375 0.875
vt 0.4375 0.8828125
vt 0.375 0.5546875
vt 0.3828125 0.5546875
vt 0.1875 0.5546875
vt 0.0625 0.5546875
vt 0.6875 0.5546875
vt 0.5625 0.5546875
vt 0.8828125 0.5546875
vt 0.875 0.5546875

usemtl Frame

f 3/3/1 2/2/1 1/1/1
f 2/2/1 3/3/1 4/4/1
f 4/4/1 3/3/1 5/5/1
f 4/4/1 5/5/1 6/6/1
f 4/4/1 6/6/1 7/7/1
f 4/4/1 7/7/1 8/8/1
f 10/11/3 6/10/2 9/9/2
f 6/10/2 10/11/3 7/12/3
f 6/15/2 11/14/4 9/13/2
f 11/14/4 6/15/2 5/16/4
f 5/16/4 12/17/5 11/14/4
f 12/17/5 5/16/4 3/18/5
f 3/18/5 13/19/6 12/17/5
f 13/19/6 3/18/5 1/20/6
f 14/21/7 7/12/3 10/11/3
f 7/12/3 14/21/7 8/22/7
f 15/23/8 8/22/7 14/21/7
f 8/22/7 15/23/8 4/24/8
f 16/27/9 12/26/9 13/25/9
f 12/26/9 16/27/9 15/28/9
f 12/26/9 15/28/9 11/29/9
f 11/29/9 15/28/9 9/30/9
f 9/30/9 15/28/9 10/31/9
f 10/31/9 15/28/9 14/32/9
f 2/35/10 13/34/10 1/33/10
f 13/34/10 2/35/10 16/36/10
f 2/39/11 15/38/11 16/37/11
f 15/38/11 2/39/11 4/40/11
f 19/43/3 18/42/12 17/41/12
f 18/42/12 19/43/3 20/44/3
f 21/45/2 20/44/3 19/43/3
f 20/44/3 21/45/2 22/46/2
f 21/49/2 23/48/4 22/47/2
f 23/48/4 21/49/2 24/50/4
f 24/50/4 25/51/5 23/48/4
f 25/51/5 24/50/4 26/52/5
f 27/53/13 17/41/12 18/42/12
f 17/41/12 27/53/13 28/54/13
f 26/52/5 29/55/14 25/51/5
f 29/55/14 26/52/5 30/56/14
f 31/59/10 28/58/10 27/57/10
f 28/58/10 31/59/10 32/60/10
f 32/63/9 17/62/9 28/61/9
f 17/62/9 32/63/9 19/64/9
f 19/64/9 32/63/9 21/65/9
f 21/65/9 32/63/9 24/66/9
f 24/66/9 32/63/9 26/67/9
f 26/67/9 32/63/9 30/68/9
f 31/40/11 30/69/11 32/38/11
f 30/69/11 31/40/11 29/70/11
f 31/73/1 25/72/1 29/71/1
f 25/72/1 31/73/1 23/74/1
f 23/74/1 31/73/1 22/75/1
f 22/75/1 31/73/1 20/76/1
f 20/76/1 31/73/1 18/77/1
f 18/77/1 31/73/1 27/78/1
f 34/80/1 33/79/1 29/71/1
f 33/79/1 34/80/1 35/81/1
f 35/81/1 34/80/1 36/82/1
f 35/81/1 36/82/1 37/83/1
f 35/81/1 37/83/1 38/84/1
f 35/81/1 38/84/1 39/85/1
f 41/88/3 37/87/2 40/86/2
f 37/87/2 41/88/3 38/89/3
f 37/92/2 42/91/4 40/90/2
f 42/91/4 37/92/2 36/93/4
f 36/93/4 43/94/5 42/91/4
f 43/94/5 36/93/4 34/95/5
f 34/95/5 30/56/14 43/94/5
f 30/56/14 34/95/5 29/55/14
f 44/96/7 38/89/3 41/88/3
f 38/89/3 44/96/7 39/97/7
f 45/98/8 39/97/7 44/96/7
f 39/97/7 45/98/8 35/99/8
f 46/101/9 43/100/9 30/68/9
f 43/100/9 46/101/9 45/102/9
f 43/100/9 45/102/9 42/103/9
f 42/103/9 45/102/9 40/104/9
f 40/104/9 45/102/9 41/105/9
f 41/105/9 45/102/9 44/106/9
f 33/107/10 30/60/10 29/59/10
f 30/60/10 33/107/10 46/108/10
f 33/70/11 45/109/11 46/69/11
f 45/109/11 33/70/11 35/110/11
f 49/113/16 48/112/15 47/111/15
f 48/112/15 49/113/16 50/114/16
f 51/115/17 47/111/15 48/112/15
f 47/111/15 51/115/17 52/116/17
f 53/117/18 50/114/16 49/113/16
f 50/114/16 53/117/18 54/118/18
f 53/121/18 55/120/19 54/119/18
f 55/120/19 53/121/18 56/122/19
f 56/122/19 57/123/20 55/120/19
f 57/123/20 56/122/19 58/124/20
f 58/124/20 59/70/21 57/123/20
f 59/70/21 58/124/20 60/69/21
f 51/126/22 61/56/22 52/125/22
f 61/56/22 51/126/22 62/55/22
f 58/129/9 61/128/9 60/127/9
f 61/128/9 58/129/9 52/130/9
f 52/130/9 58/129/9 56/131/9
f 52/130/9 56/131/9 53/132/9
f 52/130/9 53/132/9 49/133/9
f 52/130/9 49/133/9 47/134/9
f 51/137/1 59/136/1 62/135/1
f 59/136/1 51/137/1 57/138/1
f 57/138/1 51/137/1 55/139/1
f 55/139/1 51/137/1 54/140/1
f 54/140/1 51/137/1 50/141/1
f 50/141/1 51/137/1 48/142/1
f 59/145/10 61/144/10 62/143/10
f 61/144/10 59/145/10 60/146/10
f 65/147/10 64/146/10 63/145/10
f 64/146/10 65/147/10 66/148/10
f 59/55/22 64/149/22 60/56/22
f 64/149/22 59/55/22 63/150/22
f 66/153/17 68/152/15 67/151/15
f 68/152/15 66/153/17 65/154/17
f 69/155/16 67/151/15 68/152/15
f 67/151/15 69/155/16 70/156/16
f 71/157/18 70/156/16 69/155/16
f 70/156/16 71/157/18 72/158/18
f 71/161/18 73/160/19 72/159/18
f 73/160/19 71/161/18 74/162/19
f 74/162/19 75/163/20 73/160/19
f 75/163/20 74/162/19 76/164/20
f 76/164/20 60/69/21 75/163/20
f 60/69/21 76/164/20 59/70/21
f 67/167/9 64/166/9 66/165/9
f 64/166/9 67/167/9 70/168/9
f 64/166/9 70/168/9 72/169/9
f 64/166/9 72/169/9 73/170/9
f 64/166/9 73/170/9 75/171/9
f 64/166/9 75/171/9 60/127/9
f 63/174/1 68/173/1 65/172/1
f 68/173/1 63/174/1 69/175/1
f 69/175/1 63/174/1 71/176/1
f 71/176/1 63/174/1 74/177/1
f 74/177/1 63/174/1 76/178/1
f 76/178/1 63/174/1 59/136/1
f 79/181/16 78/180/15 77/179/15
f 78/180/15 79/181/16 80/182/16
f 81/183/17 77/179/15 78/180/15
f 77/179/15 81/183/17 82/184/17
f 83/185/18 80/182/16 79/181/16
f 80/182/16 83/185/18 84/186/18
f 83/189/18 85/188/19 84/187/18
f 85/188/19 83/189/18 86/190/19
f 86/190/19 87/191/20 85/188/19
f 87/191/20 86/190/19 88/192/20
f 88/192/20 89/39/21 87/191/20
f 89/39/21 88/192/20 90/37/21
f 81/150/22 91/19/22 82/149/22
f 91/19/22 81/150/22 92/20/22
f 88/195/9 91/194/9 90/193/9
f 91/194/9 88/195/9 82/196/9
f 82/196/9 88/195/9 86/197/9
f 82/196/9 86/197/9 83/198/9
f 82/196/9 83/198/9 79/199/9
f 82/196/9 79/199/9 77/200/9
f 81/203/1 89/202/1 92/201/1
f 89/202/1 81/203/1 87/204/1
f 87/204/1 81/203/1 85/205/1
f 85/205/1 81/203/1 84/206/1
f 84/206/1 81/203/1 80/207/1
f 80/207/1 81/203/1 78/208/1
f 89/211/10 91/210/10 92/209/10
f 91/210/10 89/211/10 90/212/10
f 62/143/10 46/108/10 33/107/10
f 46/108/10 62/143/10 61/144/10
f 62/70/11 52/109/11 61/69/11
f 52/109/11 62/70/11 51/110/11
f 52/130/9 46/101/9 61/128/9
f 46/101/9 52/130/9 45/102/9
f 35/81/1 62/135/1 33/79/1
f 62/135/1 35/81/1 51/137/1
f 35/126/22 46/56/22 45/125/22
f 46/56/22 35/126/22 33/55/22
f 52/116/23 35/99/23 45/98/23
f 35/99/23 52/116/23 51/115/23
f 95/107/10 94/60/10 93/59/10
f 94/60/10 95/107/10 96/108/10
f 95/39/11 46/69/11 96/37/11
f 46/69/11 95/39/11 33/70/11
f 46/101/9 94/214/9 96/213/9
f 94/214/9 46/101/9 30/68/9
f 29/71/1 95/216/1 93/215/1
f 95/216/1 29/71/1 33/79/1
f 29/55/22 94/19/22 30/56/22
f 94/19/22 29/55/22 93/20/22
f 46/98/23 29/218/23 30/217/23
f 29/218/23 46/98/23 33/99/23
f 99/219/10 98/108/10 97/107/10
f 98/108/10 99/219/10 100/220/10
f 99/222/11 101/69/11 100/221/11
f 101/69/11 99/222/11 102/70/11
f 101/225/9 98/224/9 100/223/9
f 98/224/9 101/225/9 46/101/9
f 33/79/1 99/227/1 97/226/1
f 99/227/1 33/79/1 102/228/1
f 33/55/22 98/229/22 46/56/22
f 98/229/22 33/55/22 97/230/22
f 101/231/23 33/99/23 46/98/23
f 33/99/23 101/231/23 102/232/23
f 105/233/10 104/220/10 103/219/10
f 104/220/10 105/233/10 106/234/10
f 105/40/11 107/69/11 106/38/11
f 107/69/11 105/40/11 108/70/11
f 107/237/9 104/236/9 106/235/9
f 104/236/9 107/237/9 101/225/9
f 102/228/1 105/239/1 103/238/1
f 105/239/1 102/228/1 108/240/1
f 102/55/22 104/149/22 101/56/22
f 104/149/22 102/55/22 103/150/22
f 107/241/23 102/232/23 101/231/23
f 102/232/23 107/241/23 108/242/23
f 111/143/10 110/234/10 109/233/10
f 110/234/10 111/143/10 112/144/10
f 111/222/11 61/69/11 112/221/11
f 61/69/11 111/222/11 62/70/11
f 61/128/9 110/244/9 112/243/9
f 110/244/9 61/128/9 107/237/9
f 108/240/1 111/246/1 109/245/1
f 111/246/1 108/240/1 62/135/1
f 108/55/22 110/229/22 107/56/22
f 110/229/22 108/55/22 109/230/22
f 61/116/23 108/242/23 107/241/23
f 108/242/23 61/116/23 62/115/23
f 115/145/10 114/144/10 113/143/10
f 114/144/10 115/145/10 116/146/10
f 115/39/11 60/69/11 116/37/11
f 60/69/11 115/39/11 59/70/11
f 60/127/9 114/248/9 116/247/9
f 114/248/9 60/127/9 61/128/9
f 62/135/1 115/250/1 113/249/1
f 115/250/1 62/135/1 59/136/1
f 62/55/22 114/19/22 61/56/22
f 114/19/22 62/55/22 113/20/22
f 60/251/23 62/115/23 61/116/23
f 62/115/23 60/251/23 59/252/23
f 93/59/10 16/36/10 2/35/10
f 16/36/10 93/59/10 94/60/10
f 93/39/11 32/38/11 94/37/11
f 32/38/11 93/39/11 31/40/11
f 32/63/9 16/27/9 94/214/9
f 16/27/9 32/63/9 15/28/9
f 4/4/1 93/215/1 2/2/1
f 93/215/1 4/4/1 31/73/1
f 4/150/22 16/19/22 15/149/22
f 16/19/22 4/150/22 2/20/22
f 32/217/23 4/24/23 15/23/23
f 4/24/23 32/217/23 31/218/23
f 109/233/10 100/220/10 99/219/10
f 100/220/10 109/233/10 110/234/10
f 109/222/11 106/38/11 110/221/11
f 106/38/11 109/222/11 105/40/11
f 106/235/9 100/223/9 110/244/9
f 100/223/9 106/235/9 104/236/9
f 103/238/1 109/245/1 99/227/1
f 109/245/1 103/238/1 105/239/1
f 103/150/22 100/229/22 104/149/22
f 100/229/22 103/150/22 99/230/22
f 106/241/23 103/232/23 104/231/23
f 103/232/23 106/241/23 105/242/23
f 92/209/10 116/146/10 115/145/10
f 116/146/10 92/209/10 91/210/10
f 92/39/11 82/38/11 91/37/11
f 82/38/11 92/39/11 81/40/11
f 82/196/9 116/247/9 91/194/9
f 116/247/9 82/196/9 64/166/9
f 63/174/1 92/201/1 115/250/1
f 92/201/1 63/174/1 81/203/1
f 63/150/22 116/19/22 64/149/22
f 116/19/22 63/150/22 115/20/22
f 82/184/23 63/252/23 64/251/23
f 63/252/23 82/184/23 81/183/23
f 119/35/10 118/34/10 117/33/10
f 118/34/10 119/35/10 120/36/10
f 119/254/11 16/37/11 120/253/11
f 16/37/11 119/254/11 2/39/11
f 16/27/9 118/256/9 120/255/9
f 118/256/9 16/27/9 13/25/9
f 1/1/1 119/258/1 117/257/1
f 119/258/1 1/1/1 2/2/1
f 1/20/22 118/259/22 13/19/22
f 118/259/22 1/20/22 117/260/22
f 16/23/23 1/262/23 13/261/23
f 1/262/23 16/23/23 2/24/23
f 123/263/10 122/36/10 121/35/10
f 122/36/10 123/263/10 124/264/10
f 123/266/11 125/37/11 124/265/11
f 125/37/11 123/266/11 126/39/11
f 125/269/9 122/268/9 124/267/9
f 122/268/9 125/269/9 16/27/9
f 2/2/1 123/271/1 121/270/1
f 123/271/1 2/2/1 126/272/1
f 2/20/22 122/273/22 16/19/22
f 122/273/22 2/20/22 121/274/22
f 125/275/23 2/24/23 16/23/23
f 2/24/23 125/275/23 126/276/23
f 97/107/10 128/264/10 127/263/10
f 128/264/10 97/107/10 98/108/10
f 97/222/11 96/37/11 98/221/11
f 96/37/11 97/222/11 95/39/11
f 96/213/9 128/277/9 98/224/9
f 128/277/9 96/213/9 125/269/9
f 126/272/1 97/226/1 127/278/1
f 97/226/1 126/272/1 95/216/1
f 126/20/22 128/229/22 125/19/22
f 128/229/22 126/20/22 127/230/22
f 96/98/23 126/276/23 125/275/23
f 126/276/23 96/98/23 95/99/23
f 129/209/10 112/144/10 111/143/10
f 112/144/10 129/209/10 130/210/10
f 129/222/11 91/37/11 130/221/11
f 91/37/11 129/222/11 92/39/11
f 91/194/9 112/243/9 130/279/9
f 112/243/9 91/194/9 114/248/9
f 113/249/1 129/280/1 111/246/1
f 129/280/1 113/249/1 92/201/1
f 113/20/22 112/229/22 114/19/22
f 112/229/22 113/20/22 111/230/22
f 91/184/23 113/115/23 114/116/23
f 113/115/23 91/184/23 92/183/23
f 133/211/10 132/210/10 131/209/10
f 132/210/10 133/211/10 134/212/10
f 133/254/11 90/37/11 134/253/11
f 90/37/11 133/254/11 89/39/11
f 90/193/9 132/282/9 134/281/9
f 132/282/9 90/193/9 91/194/9
f 92/201/1 133/284/1 131/283/1
f 133/284/1 92/201/1 89/202/1
f 92/20/22 132/259/22 91/19/22
f 132/259/22 92/20/22 131/260/22
f 90/285/23 92/183/23 91/184/23
f 92/183/23 90/285/23 89/286/23
f 137/209/10 136/288/10 135/287/10
f 136/288/10 137/209/10 138/210/10
f 137/266/11 130/221/11 138/265/11
f 130/221/11 137/266/11 129/222/11
f 130/279/9 136/290/9 138/289/9
f 136/290/9 130/279/9 139/291/9
f 140/294/1 137/293/1 135/292/1
f 137/293/1 140/294/1 129/280/1
f 140/230/22 136/273/22 139/229/22
f 136/273/22 140/230/22 135/274/22
f 130/184/23 140/296/23 139/295/23
f 140/296/23 130/184/23 129/183/23
f 135/287/10 124/264/10 123/263/10
f 124/264/10 135/287/10 136/288/10
f 135/266/11 141/297/11 136/265/11
f 141/297/11 135/266/11 142/298/11
f 141/299/9 124/267/9 136/290/9
f 124/267/9 141/299/9 143/300/9
f 144/301/1 135/292/1 123/271/1
f 135/292/1 144/301/1 142/302/1
f 144/304/22 124/273/22 143/303/22
f 124/273/22 144/304/22 123/274/22
f 141/295/23 144/276/23 143/275/23
f 144/276/23 141/295/23 142/296/23
f 131/209/10 120/36/10 119/35/10
f 120/36/10 131/209/10 132/210/10
f 131/254/11 138/265/11 132/253/11
f 138/265/11 131/254/11 137/266/11
f 138/289/9 120/255/9 132/282/9
f 120/255/9 138/289/9 122/268/9
f 121/270/1 131/283/1 119/258/1
f 131/283/1 121/270/1 137/293/1
f 121/274/22 120/259/22 122/273/22
f 120/259/22 121/274/22 119/260/22
f 138/184/23 121/24/23 122/23/23
f 121/24/23 138/184/23 137/183/23
f 97/107/10 128/264/10 127/263/10
f 128/264/10 97/107/10 98/108/10
f 97/222/11 96/37/11 98/221/11
f 96/37/11 97/222/11 95/39/11
f 96/213/9 128/277/9 98/224/9
f 128/277/9 96/213/9 125/269/9
f 126/272/1 97/226/1 127/278/1
f 97/226/1 126/272/1 95/216/1
f 126/20/22 128/229/22 125/19/22
f 128/229/22 126/20/22 127/230/22
f 96/98/23 126/276/23 125/275/23
f 126/276/23 96/98/23 95/99/23

