# Created by Kenney (www.kenney.nl)

mtllib Bar.mtl

v 16 0 5.25
v 16 0 -5.25
v -16 0 5.25
v -16 0 -5.25
v -16 1 -5.25
v -16 1 5.25
v 16 1 -5.25
v 16 1 5.25
v 16 -1 3
v 16 -1 -3
v -16 -1 3
v -16 -1 -3
v -16 0 -3
v -16 0 3
v 16 0 -3
v 16 0 3
v 16 -8 2.25
v 16 -8 -2.25
v 15 -8 2.25
v 15 -8 -2.25
v 15 -1 -2.25
v 15 -1 2.25
v 16 -1 -2.25
v 16 -1 2.25
v 15 -4 3.75
v 15 -4 -3.75
v 14 -4 3.75
v 14 -4 -3.75
v 14 -1 -3.75
v 14 -1 3.75
v 15 -1 -3.75
v 15 -1 3.75
v 14 -8 2.25
v 14 -8 -2.25
v 13 -8 2.25
v 13 -8 -2.25
v 13 -1 -2.25
v 13 -1 2.25
v 14 -1 -2.25
v 14 -1 2.25
v 13 -2 2.25
v 13 -2 -2.25
v 3 -2 2.25
v 3 -2 -2.25
v 3 -1 -2.25
v 3 -1 2.25
v 3 -4 3.75
v 3 -4 -3.75
v 2 -4 3.75
v 2 -4 -3.75
v 2 -1 -3.75
v 2 -1 3.75
v 3 -1 -3.75
v 3 -1 3.75
v 2 -8 2.25
v 2 -8 -2.25
v 1 -8 2.25
v 1 -8 -2.25
v 1 -1 -2.25
v 1 -1 2.25
v 2 -1 -2.25
v 2 -1 2.25
v 1 -2 2.25
v 1 -2 -2.25
v -2 -2 2.25
v -2 -2 -2.25
v -2 -1 -2.25
v -2 -1 2.25
v -2 -4 3.75
v -2 -4 -3.75
v -3 -4 3.75
v -3 -4 -3.75
v -3 -1 -3.75
v -3 -1 3.75
v -2 -1 -3.75
v -2 -1 3.75
v -3 -8 2.25
v -3 -8 -2.25
v -4 -8 2.25
v -4 -8 -2.25
v -4 -1 -2.25
v -4 -1 2.25
v -3 -1 -2.25
v -3 -1 2.25
v -4 -2 2.25
v -4 -2 -2.25
v -14 -2 2.25
v -14 -2 -2.25
v -14 -1 -2.25
v -14 -1 2.25
v -14 -4 3.75
v -14 -4 -3.75
v -15 -4 3.75
v -15 -4 -3.75
v -15 -1 -3.75
v -15 -1 3.75
v -14 -1 -3.75
v -14 -1 3.75
v -15 -8 2.25
v -15 -8 -2.25
v -16 -8 2.25
v -16 -8 -2.25
v -16 -1 -2.25
v -16 -1 2.25
v -15 -1 -2.25
v -15 -1 2.25
v 13 -3 2.25
v 13 -3 -2.25
v 3 -3 2.25
v 3 -3 -2.25
v 1 -3 2.25
v 1 -3 -2.25
v -2 -3 2.25
v -2 -3 -2.25
v -4 -3 2.25
v -4 -3 -2.25
v -14 -3 2.25
v -14 -3 -2.25
v 13 -6 3
v 13 -6 -3
v 9 -6 3
v 9 -6 -3
v 9 -3 -3
v 9 -3 3
v 13 -3 -3
v 13 -3 3
v 9 -8 2.25
v 9 -8 -2.25
v 8 -8 2.25
v 8 -8 -2.25
v 8 -3 -2.25
v 8 -3 2.25
v 9 -3 -2.25
v 9 -3 2.25
v 8 -6 3
v 8 -6 -3
v 4 -6 3
v 4 -6 -3
v 4 -3 -3
v 4 -3 3
v 8 -3 -3
v 8 -3 3
v 4 -8 2.25
v 4 -8 -2.25
v 3 -8 2.25
v 3 -8 -2.25
v 4 -3 -2.25
v 4 -3 2.25
v 1 -6 3
v 1 -6 -3
v -1 -6 3
v -1 -6 -3
v -1 -3 -3
v -1 -3 3
v 1 -3 -3
v 1 -3 3
v -1 -8 2.25
v -1 -8 -2.25
v -2 -8 2.25
v -2 -8 -2.25
v -1 -3 -2.25
v -1 -3 2.25
v -4 -6 3
v -4 -6 -3
v -8 -6 3
v -8 -6 -3
v -8 -3 -3
v -8 -3 3
v -4 -3 -3
v -4 -3 3
v -8 -8 2.25
v -8 -8 -2.25
v -9 -8 2.25
v -9 -8 -2.25
v -9 -3 -2.25
v -9 -3 2.25
v -8 -3 -2.25
v -8 -3 2.25
v -9 -6 3
v -9 -6 -3
v -13 -6 3
v -13 -6 -3
v -13 -3 -3
v -13 -3 3
v -9 -3 -3
v -9 -3 3
v -13 -8 2.25
v -13 -8 -2.25
v -14 -8 2.25
v -14 -8 -2.25
v -13 -3 -2.25
v -13 -3 2.25
v 15 -9 3
v 15 -9 -3
v 14 -9 3
v 14 -9 -3
v 14 -4 -3
v 14 -4 3
v 15 -4 -3
v 15 -4 3
v 3 -9 3
v 3 -9 -3
v 2 -9 3
v 2 -9 -3
v 2 -4 -3
v 2 -4 3
v 3 -4 -3
v 3 -4 3
v -2 -9 3
v -2 -9 -3
v -3 -9 3
v -3 -9 -3
v -3 -4 -3
v -3 -4 3
v -2 -4 -3
v -2 -4 3
v -14 -9 3
v -14 -9 -3
v -15 -9 3
v -15 -9 -3
v -15 -4 -3
v -15 -4 3
v -14 -4 -3
v -14 -4 3
v 9 -6 -2.25
v 9 -6 2.25
v 13 -6 -2.25
v 13 -6 2.25
v 4 -6 -2.25
v 4 -6 2.25
v 8 -6 -2.25
v 8 -6 2.25
v -1 -6 -2.25
v -1 -6 2.25
v 1 -6 -2.25
v 1 -6 2.25
v -8 -6 -2.25
v -8 -6 2.25
v -4 -6 -2.25
v -4 -6 2.25
v -13 -6 -2.25
v -13 -6 2.25
v -9 -6 -2.25
v -9 -6 2.25
v 16 -9 3
v 16 -9 -3
v 15 -8 -3
v 15 -8 3
v 16 -8 -3
v 16 -8 3
v 3 -8 -3
v 3 -8 3
v 14 -8 -3
v 14 -8 3
v -2 -8 -3
v -2 -8 3
v 2 -8 -3
v 2 -8 3
v -14 -8 -3
v -14 -8 3
v -3 -8 -3
v -3 -8 3
v -16 -9 3
v -16 -9 -3
v -16 -8 -3
v -16 -8 3
v -15 -8 -3
v -15 -8 3

vn 0 -1 0
vn -1 0 0
vn 0 0 -1
vn 0 0 1
vn 1 0 0
vn 0 1 0

vt 0.1875 0.1875
vt 0.3125 0.1875
vt 0.5625 0.1875

usemtl Bar

f 3/1/1 2/1/1 1/1/1
f 2/1/1 3/1/1 4/1/1
f 3/1/2 5/1/2 4/1/2
f 5/1/2 3/1/2 6/1/2
f 5/1/3 2/1/3 4/1/3
f 2/1/3 5/1/3 7/1/3
f 8/1/4 3/1/4 1/1/4
f 3/1/4 8/1/4 6/1/4
f 8/1/5 2/1/5 7/1/5
f 2/1/5 8/1/5 1/1/5
f 5/1/6 8/1/6 7/1/6
f 8/1/6 5/1/6 6/1/6
f 11/2/1 10/2/1 9/2/1
f 10/2/1 11/2/1 12/2/1
f 11/2/2 13/2/2 12/2/2
f 13/2/2 11/2/2 14/2/2
f 13/2/3 10/2/3 12/2/3
f 10/2/3 13/2/3 15/2/3
f 16/2/4 11/2/4 9/2/4
f 11/2/4 16/2/4 14/2/4
f 16/2/5 10/2/5 15/2/5
f 10/2/5 16/2/5 9/2/5
f 13/2/6 16/2/6 15/2/6
f 16/2/6 13/2/6 14/2/6
f 19/3/1 18/3/1 17/3/1
f 18/3/1 19/3/1 20/3/1
f 19/3/2 21/3/2 20/3/2
f 21/3/2 19/3/2 22/3/2
f 21/3/3 18/3/3 20/3/3
f 18/3/3 21/3/3 23/3/3
f 24/3/4 19/3/4 17/3/4
f 19/3/4 24/3/4 22/3/4
f 24/3/5 18/3/5 23/3/5
f 18/3/5 24/3/5 17/3/5
f 21/3/6 24/3/6 23/3/6
f 24/3/6 21/3/6 22/3/6
f 27/2/1 26/2/1 25/2/1
f 26/2/1 27/2/1 28/2/1
f 27/2/2 29/2/2 28/2/2
f 29/2/2 27/2/2 30/2/2
f 29/2/3 26/2/3 28/2/3
f 26/2/3 29/2/3 31/2/3
f 32/2/4 27/2/4 25/2/4
f 27/2/4 32/2/4 30/2/4
f 32/2/5 26/2/5 31/2/5
f 26/2/5 32/2/5 25/2/5
f 29/2/6 32/2/6 31/2/6
f 32/2/6 29/2/6 30/2/6
f 35/3/1 34/3/1 33/3/1
f 34/3/1 35/3/1 36/3/1
f 35/3/2 37/3/2 36/3/2
f 37/3/2 35/3/2 38/3/2
f 37/3/3 34/3/3 36/3/3
f 34/3/3 37/3/3 39/3/3
f 40/3/4 35/3/4 33/3/4
f 35/3/4 40/3/4 38/3/4
f 40/3/5 34/3/5 39/3/5
f 34/3/5 40/3/5 33/3/5
f 37/3/6 40/3/6 39/3/6
f 40/3/6 37/3/6 38/3/6
f 43/3/1 42/3/1 41/3/1
f 42/3/1 43/3/1 44/3/1
f 43/3/2 45/3/2 44/3/2
f 45/3/2 43/3/2 46/3/2
f 45/3/3 42/3/3 44/3/3
f 42/3/3 45/3/3 37/3/3
f 38/3/4 43/3/4 41/3/4
f 43/3/4 38/3/4 46/3/4
f 38/3/5 42/3/5 37/3/5
f 42/3/5 38/3/5 41/3/5
f 45/3/6 38/3/6 37/3/6
f 38/3/6 45/3/6 46/3/6
f 49/2/1 48/2/1 47/2/1
f 48/2/1 49/2/1 50/2/1
f 49/2/2 51/2/2 50/2/2
f 51/2/2 49/2/2 52/2/2
f 51/2/3 48/2/3 50/2/3
f 48/2/3 51/2/3 53/2/3
f 54/2/4 49/2/4 47/2/4
f 49/2/4 54/2/4 52/2/4
f 54/2/5 48/2/5 53/2/5
f 48/2/5 54/2/5 47/2/5
f 51/2/6 54/2/6 53/2/6
f 54/2/6 51/2/6 52/2/6
f 57/3/1 56/3/1 55/3/1
f 56/3/1 57/3/1 58/3/1
f 57/3/2 59/3/2 58/3/2
f 59/3/2 57/3/2 60/3/2
f 59/3/3 56/3/3 58/3/3
f 56/3/3 59/3/3 61/3/3
f 62/3/4 57/3/4 55/3/4
f 57/3/4 62/3/4 60/3/4
f 62/3/5 56/3/5 61/3/5
f 56/3/5 62/3/5 55/3/5
f 59/3/6 62/3/6 61/3/6
f 62/3/6 59/3/6 60/3/6
f 65/3/1 64/3/1 63/3/1
f 64/3/1 65/3/1 66/3/1
f 65/3/2 67/3/2 66/3/2
f 67/3/2 65/3/2 68/3/2
f 67/3/3 64/3/3 66/3/3
f 64/3/3 67/3/3 59/3/3
f 60/3/4 65/3/4 63/3/4
f 65/3/4 60/3/4 68/3/4
f 60/3/5 64/3/5 59/3/5
f 64/3/5 60/3/5 63/3/5
f 67/3/6 60/3/6 59/3/6
f 60/3/6 67/3/6 68/3/6
f 71/2/1 70/2/1 69/2/1
f 70/2/1 71/2/1 72/2/1
f 71/2/2 73/2/2 72/2/2
f 73/2/2 71/2/2 74/2/2
f 73/2/3 70/2/3 72/2/3
f 70/2/3 73/2/3 75/2/3
f 76/2/4 71/2/4 69/2/4
f 71/2/4 76/2/4 74/2/4
f 76/2/5 70/2/5 75/2/5
f 70/2/5 76/2/5 69/2/5
f 73/2/6 76/2/6 75/2/6
f 76/2/6 73/2/6 74/2/6
f 79/3/1 78/3/1 77/3/1
f 78/3/1 79/3/1 80/3/1
f 79/3/2 81/3/2 80/3/2
f 81/3/2 79/3/2 82/3/2
f 81/3/3 78/3/3 80/3/3
f 78/3/3 81/3/3 83/3/3
f 84/3/4 79/3/4 77/3/4
f 79/3/4 84/3/4 82/3/4
f 84/3/5 78/3/5 83/3/5
f 78/3/5 84/3/5 77/3/5
f 81/3/6 84/3/6 83/3/6
f 84/3/6 81/3/6 82/3/6
f 87/3/1 86/3/1 85/3/1
f 86/3/1 87/3/1 88/3/1
f 87/3/2 89/3/2 88/3/2
f 89/3/2 87/3/2 90/3/2
f 89/3/3 86/3/3 88/3/3
f 86/3/3 89/3/3 81/3/3
f 82/3/4 87/3/4 85/3/4
f 87/3/4 82/3/4 90/3/4
f 82/3/5 86/3/5 81/3/5
f 86/3/5 82/3/5 85/3/5
f 89/3/6 82/3/6 81/3/6
f 82/3/6 89/3/6 90/3/6
f 93/2/1 92/2/1 91/2/1
f 92/2/1 93/2/1 94/2/1
f 93/2/2 95/2/2 94/2/2
f 95/2/2 93/2/2 96/2/2
f 95/2/3 92/2/3 94/2/3
f 92/2/3 95/2/3 97/2/3
f 98/2/4 93/2/4 91/2/4
f 93/2/4 98/2/4 96/2/4
f 98/2/5 92/2/5 97/2/5
f 92/2/5 98/2/5 91/2/5
f 95/2/6 98/2/6 97/2/6
f 98/2/6 95/2/6 96/2/6
f 101/3/1 100/3/1 99/3/1
f 100/3/1 101/3/1 102/3/1
f 101/3/2 103/3/2 102/3/2
f 103/3/2 101/3/2 104/3/2
f 103/3/3 100/3/3 102/3/3
f 100/3/3 103/3/3 105/3/3
f 106/3/4 101/3/4 99/3/4
f 101/3/4 106/3/4 104/3/4
f 106/3/5 100/3/5 105/3/5
f 100/3/5 106/3/5 99/3/5
f 103/3/6 106/3/6 105/3/6
f 106/3/6 103/3/6 104/3/6
f 109/3/1 108/3/1 107/3/1
f 108/3/1 109/3/1 110/3/1
f 109/3/2 44/3/2 110/3/2
f 44/3/2 109/3/2 43/3/2
f 44/3/3 108/3/3 110/3/3
f 108/3/3 44/3/3 42/3/3
f 41/3/4 109/3/4 107/3/4
f 109/3/4 41/3/4 43/3/4
f 41/3/5 108/3/5 42/3/5
f 108/3/5 41/3/5 107/3/5
f 44/3/6 41/3/6 42/3/6
f 41/3/6 44/3/6 43/3/6
f 113/3/1 112/3/1 111/3/1
f 112/3/1 113/3/1 114/3/1
f 113/3/2 66/3/2 114/3/2
f 66/3/2 113/3/2 65/3/2
f 66/3/3 112/3/3 114/3/3
f 112/3/3 66/3/3 64/3/3
f 63/3/4 113/3/4 111/3/4
f 113/3/4 63/3/4 65/3/4
f 63/3/5 112/3/5 64/3/5
f 112/3/5 63/3/5 111/3/5
f 66/3/6 63/3/6 64/3/6
f 63/3/6 66/3/6 65/3/6
f 117/3/1 116/3/1 115/3/1
f 116/3/1 117/3/1 118/3/1
f 117/3/2 88/3/2 118/3/2
f 88/3/2 117/3/2 87/3/2
f 88/3/3 116/3/3 118/3/3
f 116/3/3 88/3/3 86/3/3
f 85/3/4 117/3/4 115/3/4
f 117/3/4 85/3/4 87/3/4
f 85/3/5 116/3/5 86/3/5
f 116/3/5 85/3/5 115/3/5
f 88/3/6 85/3/6 86/3/6
f 85/3/6 88/3/6 87/3/6
f 121/2/1 120/2/1 119/2/1
f 120/2/1 121/2/1 122/2/1
f 121/2/2 123/2/2 122/2/2
f 123/2/2 121/2/2 124/2/2
f 123/2/3 120/2/3 122/2/3
f 120/2/3 123/2/3 125/2/3
f 126/2/4 121/2/4 119/2/4
f 121/2/4 126/2/4 124/2/4
f 126/2/5 120/2/5 125/2/5
f 120/2/5 126/2/5 119/2/5
f 123/2/6 126/2/6 125/2/6
f 126/2/6 123/2/6 124/2/6
f 129/3/1 128/3/1 127/3/1
f 128/3/1 129/3/1 130/3/1
f 129/3/2 131/3/2 130/3/2
f 131/3/2 129/3/2 132/3/2
f 131/3/3 128/3/3 130/3/3
f 128/3/3 131/3/3 133/3/3
f 134/3/4 129/3/4 127/3/4
f 129/3/4 134/3/4 132/3/4
f 134/3/5 128/3/5 133/3/5
f 128/3/5 134/3/5 127/3/5
f 131/3/6 134/3/6 133/3/6
f 134/3/6 131/3/6 132/3/6
f 137/2/1 136/2/1 135/2/1
f 136/2/1 137/2/1 138/2/1
f 137/2/2 139/2/2 138/2/2
f 139/2/2 137/2/2 140/2/2
f 139/2/3 136/2/3 138/2/3
f 136/2/3 139/2/3 141/2/3
f 142/2/4 137/2/4 135/2/4
f 137/2/4 142/2/4 140/2/4
f 142/2/5 136/2/5 141/2/5
f 136/2/5 142/2/5 135/2/5
f 139/2/6 142/2/6 141/2/6
f 142/2/6 139/2/6 140/2/6
f 145/3/1 144/3/1 143/3/1
f 144/3/1 145/3/1 146/3/1
f 145/3/2 110/3/2 146/3/2
f 110/3/2 145/3/2 109/3/2
f 110/3/3 144/3/3 146/3/3
f 144/3/3 110/3/3 147/3/3
f 148/3/4 145/3/4 143/3/4
f 145/3/4 148/3/4 109/3/4
f 148/3/5 144/3/5 147/3/5
f 144/3/5 148/3/5 143/3/5
f 110/3/6 148/3/6 147/3/6
f 148/3/6 110/3/6 109/3/6
f 151/2/1 150/2/1 149/2/1
f 150/2/1 151/2/1 152/2/1
f 151/2/2 153/2/2 152/2/2
f 153/2/2 151/2/2 154/2/2
f 153/2/3 150/2/3 152/2/3
f 150/2/3 153/2/3 155/2/3
f 156/2/4 151/2/4 149/2/4
f 151/2/4 156/2/4 154/2/4
f 156/2/5 150/2/5 155/2/5
f 150/2/5 156/2/5 149/2/5
f 153/2/6 156/2/6 155/2/6
f 156/2/6 153/2/6 154/2/6
f 159/3/1 158/3/1 157/3/1
f 158/3/1 159/3/1 160/3/1
f 159/3/2 114/3/2 160/3/2
f 114/3/2 159/3/2 113/3/2
f 114/3/3 158/3/3 160/3/3
f 158/3/3 114/3/3 161/3/3
f 162/3/4 159/3/4 157/3/4
f 159/3/4 162/3/4 113/3/4
f 162/3/5 158/3/5 161/3/5
f 158/3/5 162/3/5 157/3/5
f 114/3/6 162/3/6 161/3/6
f 162/3/6 114/3/6 113/3/6
f 165/2/1 164/2/1 163/2/1
f 164/2/1 165/2/1 166/2/1
f 165/2/2 167/2/2 166/2/2
f 167/2/2 165/2/2 168/2/2
f 167/2/3 164/2/3 166/2/3
f 164/2/3 167/2/3 169/2/3
f 170/2/4 165/2/4 163/2/4
f 165/2/4 170/2/4 168/2/4
f 170/2/5 164/2/5 169/2/5
f 164/2/5 170/2/5 163/2/5
f 167/2/6 170/2/6 169/2/6
f 170/2/6 167/2/6 168/2/6
f 173/3/1 172/3/1 171/3/1
f 172/3/1 173/3/1 174/3/1
f 173/3/2 175/3/2 174/3/2
f 175/3/2 173/3/2 176/3/2
f 175/3/3 172/3/3 174/3/3
f 172/3/3 175/3/3 177/3/3
f 178/3/4 173/3/4 171/3/4
f 173/3/4 178/3/4 176/3/4
f 178/3/5 172/3/5 177/3/5
f 172/3/5 178/3/5 171/3/5
f 175/3/6 178/3/6 177/3/6
f 178/3/6 175/3/6 176/3/6
f 181/2/1 180/2/1 179/2/1
f 180/2/1 181/2/1 182/2/1
f 181/2/2 183/2/2 182/2/2
f 183/2/2 181/2/2 184/2/2
f 183/2/3 180/2/3 182/2/3
f 180/2/3 183/2/3 185/2/3
f 186/2/4 181/2/4 179/2/4
f 181/2/4 186/2/4 184/2/4
f 186/2/5 180/2/5 185/2/5
f 180/2/5 186/2/5 179/2/5
f 183/2/6 186/2/6 185/2/6
f 186/2/6 183/2/6 184/2/6
f 189/3/1 188/3/1 187/3/1
f 188/3/1 189/3/1 190/3/1
f 189/3/2 118/3/2 190/3/2
f 118/3/2 189/3/2 117/3/2
f 118/3/3 188/3/3 190/3/3
f 188/3/3 118/3/3 191/3/3
f 192/3/4 189/3/4 187/3/4
f 189/3/4 192/3/4 117/3/4
f 192/3/5 188/3/5 191/3/5
f 188/3/5 192/3/5 187/3/5
f 118/3/6 192/3/6 191/3/6
f 192/3/6 118/3/6 117/3/6
f 195/2/1 194/2/1 193/2/1
f 194/2/1 195/2/1 196/2/1
f 195/2/2 197/2/2 196/2/2
f 197/2/2 195/2/2 198/2/2
f 197/2/3 194/2/3 196/2/3
f 194/2/3 197/2/3 199/2/3
f 200/2/4 195/2/4 193/2/4
f 195/2/4 200/2/4 198/2/4
f 200/2/5 194/2/5 199/2/5
f 194/2/5 200/2/5 193/2/5
f 197/2/6 200/2/6 199/2/6
f 200/2/6 197/2/6 198/2/6
f 203/2/1 202/2/1 201/2/1
f 202/2/1 203/2/1 204/2/1
f 203/2/2 205/2/2 204/2/2
f 205/2/2 203/2/2 206/2/2
f 205/2/3 202/2/3 204/2/3
f 202/2/3 205/2/3 207/2/3
f 208/2/4 203/2/4 201/2/4
f 203/2/4 208/2/4 206/2/4
f 208/2/5 202/2/5 207/2/5
f 202/2/5 208/2/5 201/2/5
f 205/2/6 208/2/6 207/2/6
f 208/2/6 205/2/6 206/2/6
f 211/2/1 210/2/1 209/2/1
f 210/2/1 211/2/1 212/2/1
f 211/2/2 213/2/2 212/2/2
f 213/2/2 211/2/2 214/2/2
f 213/2/3 210/2/3 212/2/3
f 210/2/3 213/2/3 215/2/3
f 216/2/4 211/2/4 209/2/4
f 211/2/4 216/2/4 214/2/4
f 216/2/5 210/2/5 215/2/5
f 210/2/5 216/2/5 209/2/5
f 213/2/6 216/2/6 215/2/6
f 216/2/6 213/2/6 214/2/6
f 219/2/1 218/2/1 217/2/1
f 218/2/1 219/2/1 220/2/1
f 219/2/2 221/2/2 220/2/2
f 221/2/2 219/2/2 222/2/2
f 221/2/3 218/2/3 220/2/3
f 218/2/3 221/2/3 223/2/3
f 224/2/4 219/2/4 217/2/4
f 219/2/4 224/2/4 222/2/4
f 224/2/5 218/2/5 223/2/5
f 218/2/5 224/2/5 217/2/5
f 221/2/6 224/2/6 223/2/6
f 224/2/6 221/2/6 222/2/6
f 127/3/1 36/3/1 35/3/1
f 36/3/1 127/3/1 128/3/1
f 127/3/2 225/3/2 128/3/2
f 225/3/2 127/3/2 226/3/2
f 225/3/3 36/3/3 128/3/3
f 36/3/3 225/3/3 227/3/3
f 228/3/4 127/3/4 35/3/4
f 127/3/4 228/3/4 226/3/4
f 228/3/5 36/3/5 227/3/5
f 36/3/5 228/3/5 35/3/5
f 225/3/6 228/3/6 227/3/6
f 228/3/6 225/3/6 226/3/6
f 143/3/1 130/3/1 129/3/1
f 130/3/1 143/3/1 144/3/1
f 143/3/2 229/3/2 144/3/2
f 229/3/2 143/3/2 230/3/2
f 229/3/3 130/3/3 144/3/3
f 130/3/3 229/3/3 231/3/3
f 232/3/4 143/3/4 129/3/4
f 143/3/4 232/3/4 230/3/4
f 232/3/5 130/3/5 231/3/5
f 130/3/5 232/3/5 129/3/5
f 229/3/6 232/3/6 231/3/6
f 232/3/6 229/3/6 230/3/6
f 157/3/1 58/3/1 57/3/1
f 58/3/1 157/3/1 158/3/1
f 157/3/2 233/3/2 158/3/2
f 233/3/2 157/3/2 234/3/2
f 233/3/3 58/3/3 158/3/3
f 58/3/3 233/3/3 235/3/3
f 236/3/4 157/3/4 57/3/4
f 157/3/4 236/3/4 234/3/4
f 236/3/5 58/3/5 235/3/5
f 58/3/5 236/3/5 57/3/5
f 233/3/6 236/3/6 235/3/6
f 236/3/6 233/3/6 234/3/6
f 171/3/1 80/3/1 79/3/1
f 80/3/1 171/3/1 172/3/1
f 171/3/2 237/3/2 172/3/2
f 237/3/2 171/3/2 238/3/2
f 237/3/3 80/3/3 172/3/3
f 80/3/3 237/3/3 239/3/3
f 240/3/4 171/3/4 79/3/4
f 171/3/4 240/3/4 238/3/4
f 240/3/5 80/3/5 239/3/5
f 80/3/5 240/3/5 79/3/5
f 237/3/6 240/3/6 239/3/6
f 240/3/6 237/3/6 238/3/6
f 187/3/1 174/3/1 173/3/1
f 174/3/1 187/3/1 188/3/1
f 187/3/2 241/3/2 188/3/2
f 241/3/2 187/3/2 242/3/2
f 241/3/3 174/3/3 188/3/3
f 174/3/3 241/3/3 243/3/3
f 244/3/4 187/3/4 173/3/4
f 187/3/4 244/3/4 242/3/4
f 244/3/5 174/3/5 243/3/5
f 174/3/5 244/3/5 173/3/5
f 241/3/6 244/3/6 243/3/6
f 244/3/6 241/3/6 242/3/6
f 193/2/1 246/2/1 245/2/1
f 246/2/1 193/2/1 194/2/1
f 193/2/2 247/2/2 194/2/2
f 247/2/2 193/2/2 248/2/2
f 247/2/3 246/2/3 194/2/3
f 246/2/3 247/2/3 249/2/3
f 250/2/4 193/2/4 245/2/4
f 193/2/4 250/2/4 248/2/4
f 250/2/5 246/2/5 249/2/5
f 246/2/5 250/2/5 245/2/5
f 247/2/6 250/2/6 249/2/6
f 250/2/6 247/2/6 248/2/6
f 201/2/1 196/2/1 195/2/1
f 196/2/1 201/2/1 202/2/1
f 201/2/2 251/2/2 202/2/2
f 251/2/2 201/2/2 252/2/2
f 251/2/3 196/2/3 202/2/3
f 196/2/3 251/2/3 253/2/3
f 254/2/4 201/2/4 195/2/4
f 201/2/4 254/2/4 252/2/4
f 254/2/5 196/2/5 253/2/5
f 196/2/5 254/2/5 195/2/5
f 251/2/6 254/2/6 253/2/6
f 254/2/6 251/2/6 252/2/6
f 209/2/1 204/2/1 203/2/1
f 204/2/1 209/2/1 210/2/1
f 209/2/2 255/2/2 210/2/2
f 255/2/2 209/2/2 256/2/2
f 255/2/3 204/2/3 210/2/3
f 204/2/3 255/2/3 257/2/3
f 258/2/4 209/2/4 203/2/4
f 209/2/4 258/2/4 256/2/4
f 258/2/5 204/2/5 257/2/5
f 204/2/5 258/2/5 203/2/5
f 255/2/6 258/2/6 257/2/6
f 258/2/6 255/2/6 256/2/6
f 217/2/1 212/2/1 211/2/1
f 212/2/1 217/2/1 218/2/1
f 217/2/2 259/2/2 218/2/2
f 259/2/2 217/2/2 260/2/2
f 259/2/3 212/2/3 218/2/3
f 212/2/3 259/2/3 261/2/3
f 262/2/4 217/2/4 211/2/4
f 217/2/4 262/2/4 260/2/4
f 262/2/5 212/2/5 261/2/5
f 212/2/5 262/2/5 211/2/5
f 259/2/6 262/2/6 261/2/6
f 262/2/6 259/2/6 260/2/6
f 263/2/1 220/2/1 219/2/1
f 220/2/1 263/2/1 264/2/1
f 263/2/2 265/2/2 264/2/2
f 265/2/2 263/2/2 266/2/2
f 265/2/3 220/2/3 264/2/3
f 220/2/3 265/2/3 267/2/3
f 268/2/4 263/2/4 219/2/4
f 263/2/4 268/2/4 266/2/4
f 268/2/5 220/2/5 267/2/5
f 220/2/5 268/2/5 219/2/5
f 265/2/6 268/2/6 267/2/6
f 268/2/6 265/2/6 266/2/6
f 43/3/1 42/3/1 41/3/1
f 42/3/1 43/3/1 44/3/1
f 43/3/2 45/3/2 44/3/2
f 45/3/2 43/3/2 46/3/2
f 45/3/3 42/3/3 44/3/3
f 42/3/3 45/3/3 37/3/3
f 38/3/4 43/3/4 41/3/4
f 43/3/4 38/3/4 46/3/4
f 38/3/5 42/3/5 37/3/5
f 42/3/5 38/3/5 41/3/5
f 45/3/6 38/3/6 37/3/6
f 38/3/6 45/3/6 46/3/6
f 65/3/1 64/3/1 63/3/1
f 64/3/1 65/3/1 66/3/1
f 65/3/2 67/3/2 66/3/2
f 67/3/2 65/3/2 68/3/2
f 67/3/3 64/3/3 66/3/3
f 64/3/3 67/3/3 59/3/3
f 60/3/4 65/3/4 63/3/4
f 65/3/4 60/3/4 68/3/4
f 60/3/5 64/3/5 59/3/5
f 64/3/5 60/3/5 63/3/5
f 67/3/6 60/3/6 59/3/6
f 60/3/6 67/3/6 68/3/6
f 87/3/1 86/3/1 85/3/1
f 86/3/1 87/3/1 88/3/1
f 87/3/2 89/3/2 88/3/2
f 89/3/2 87/3/2 90/3/2
f 89/3/3 86/3/3 88/3/3
f 86/3/3 89/3/3 81/3/3
f 82/3/4 87/3/4 85/3/4
f 87/3/4 82/3/4 90/3/4
f 82/3/5 86/3/5 81/3/5
f 86/3/5 82/3/5 85/3/5
f 89/3/6 82/3/6 81/3/6
f 82/3/6 89/3/6 90/3/6

